<mxfile host="app.diagrams.net" modified="2023-05-02T00:18:51.955Z" agent="Mozilla/5.0 (Macintosh; Intel Mac OS X 10_15_7) AppleWebKit/605.1.15 (KHTML, like Gecko) Version/16.4 Safari/605.1.15" etag="35e7e5DLlhP9riER28oX" version="21.2.3" type="device">
  <diagram id="R2lEEEUBdFMjLlhIrx00" name="Page-1">
    <mxGraphModel dx="2304" dy="974" grid="1" gridSize="10" guides="1" tooltips="1" connect="1" arrows="1" fold="1" page="1" pageScale="1" pageWidth="850" pageHeight="1100" math="0" shadow="0" extFonts="Permanent Marker^https://fonts.googleapis.com/css?family=Permanent+Marker">
      <root>
        <mxCell id="0" />
        <mxCell id="1" parent="0" />
        <mxCell id="mHuUaChPZsy_ELMwy_D_-1" value="Environment" style="swimlane;childLayout=stackLayout;horizontal=1;startSize=50;horizontalStack=0;rounded=1;fontSize=14;fontStyle=0;strokeWidth=2;resizeParent=0;resizeLast=1;shadow=0;dashed=0;align=center;arcSize=4;whiteSpace=wrap;html=1;" parent="1" vertex="1">
          <mxGeometry y="727" width="160" height="80" as="geometry" />
        </mxCell>
        <mxCell id="mHuUaChPZsy_ELMwy_D_-2" value="+Name&lt;br&gt;" style="align=left;strokeColor=none;fillColor=none;spacingLeft=4;fontSize=12;verticalAlign=top;resizable=0;rotatable=0;part=1;html=1;" parent="mHuUaChPZsy_ELMwy_D_-1" vertex="1">
          <mxGeometry y="50" width="160" height="30" as="geometry" />
        </mxCell>
        <mxCell id="mHuUaChPZsy_ELMwy_D_-4" value="Workspace&lt;br&gt;(Team)" style="swimlane;childLayout=stackLayout;horizontal=1;startSize=50;horizontalStack=0;rounded=1;fontSize=14;fontStyle=0;strokeWidth=2;resizeParent=0;resizeLast=1;shadow=0;dashed=0;align=center;arcSize=4;whiteSpace=wrap;html=1;" parent="1" vertex="1">
          <mxGeometry x="570" y="450" width="160" height="80" as="geometry" />
        </mxCell>
        <mxCell id="mHuUaChPZsy_ELMwy_D_-5" value="+Name&lt;br&gt;" style="align=left;strokeColor=none;fillColor=none;spacingLeft=4;fontSize=12;verticalAlign=top;resizable=0;rotatable=0;part=1;html=1;" parent="mHuUaChPZsy_ELMwy_D_-4" vertex="1">
          <mxGeometry y="50" width="160" height="30" as="geometry" />
        </mxCell>
        <mxCell id="mHuUaChPZsy_ELMwy_D_-7" value="Application/Service" style="swimlane;childLayout=stackLayout;horizontal=1;startSize=50;horizontalStack=0;rounded=1;fontSize=14;fontStyle=0;strokeWidth=2;resizeParent=0;resizeLast=1;shadow=0;dashed=0;align=center;arcSize=4;whiteSpace=wrap;html=1;" parent="1" vertex="1">
          <mxGeometry x="570" y="610" width="160" height="80" as="geometry" />
        </mxCell>
        <mxCell id="mHuUaChPZsy_ELMwy_D_-8" value="+Name&lt;br&gt;" style="align=left;strokeColor=none;fillColor=none;spacingLeft=4;fontSize=12;verticalAlign=top;resizable=0;rotatable=0;part=1;html=1;" parent="mHuUaChPZsy_ELMwy_D_-7" vertex="1">
          <mxGeometry y="50" width="160" height="30" as="geometry" />
        </mxCell>
        <mxCell id="mHuUaChPZsy_ELMwy_D_-11" value="Workload&lt;br&gt;(microservice/component)" style="swimlane;childLayout=stackLayout;horizontal=1;startSize=50;horizontalStack=0;rounded=1;fontSize=14;fontStyle=0;strokeWidth=2;resizeParent=0;resizeLast=1;shadow=0;dashed=0;align=center;arcSize=4;whiteSpace=wrap;html=1;" parent="1" vertex="1">
          <mxGeometry x="550" y="750" width="200" height="90" as="geometry" />
        </mxCell>
        <mxCell id="mHuUaChPZsy_ELMwy_D_-12" value="+Name&lt;br&gt;+SourceURL" style="align=left;strokeColor=none;fillColor=none;spacingLeft=4;fontSize=12;verticalAlign=top;resizable=0;rotatable=0;part=1;html=1;" parent="mHuUaChPZsy_ELMwy_D_-11" vertex="1">
          <mxGeometry y="50" width="200" height="40" as="geometry" />
        </mxCell>
        <mxCell id="mHuUaChPZsy_ELMwy_D_-13" value="" style="endArrow=none;html=1;rounded=0;exitX=0.5;exitY=1;exitDx=0;exitDy=0;entryX=0.5;entryY=0;entryDx=0;entryDy=0;" parent="1" source="mHuUaChPZsy_ELMwy_D_-8" target="mHuUaChPZsy_ELMwy_D_-11" edge="1">
          <mxGeometry relative="1" as="geometry">
            <mxPoint x="220" y="380" as="sourcePoint" />
            <mxPoint x="380" y="380" as="targetPoint" />
          </mxGeometry>
        </mxCell>
        <mxCell id="mHuUaChPZsy_ELMwy_D_-14" value="N" style="resizable=0;html=1;whiteSpace=wrap;align=right;verticalAlign=bottom;" parent="mHuUaChPZsy_ELMwy_D_-13" connectable="0" vertex="1">
          <mxGeometry x="1" relative="1" as="geometry" />
        </mxCell>
        <mxCell id="mHuUaChPZsy_ELMwy_D_-15" value="WorkloadVersion" style="swimlane;childLayout=stackLayout;horizontal=1;startSize=50;horizontalStack=0;rounded=1;fontSize=14;fontStyle=0;strokeWidth=2;resizeParent=0;resizeLast=1;shadow=0;dashed=0;align=center;arcSize=4;whiteSpace=wrap;html=1;" parent="1" vertex="1">
          <mxGeometry x="850.1899999999999" y="725" width="160" height="140" as="geometry">
            <mxRectangle x="850.1899999999999" y="725" width="150" height="50" as="alternateBounds" />
          </mxGeometry>
        </mxCell>
        <mxCell id="mHuUaChPZsy_ELMwy_D_-16" value="+Version&lt;br&gt;+Build Id&lt;br&gt;+Build Commit Id&lt;br&gt;+Timestamp&amp;nbsp;" style="align=left;strokeColor=none;fillColor=none;spacingLeft=4;fontSize=12;verticalAlign=top;resizable=0;rotatable=0;part=1;html=1;" parent="mHuUaChPZsy_ELMwy_D_-15" vertex="1">
          <mxGeometry y="50" width="160" height="90" as="geometry" />
        </mxCell>
        <mxCell id="mHuUaChPZsy_ELMwy_D_-17" value="" style="endArrow=none;html=1;rounded=0;exitX=1;exitY=0.5;exitDx=0;exitDy=0;" parent="1" source="mHuUaChPZsy_ELMwy_D_-11" target="mHuUaChPZsy_ELMwy_D_-15" edge="1">
          <mxGeometry relative="1" as="geometry">
            <mxPoint x="220" y="710" as="sourcePoint" />
            <mxPoint x="380" y="710" as="targetPoint" />
          </mxGeometry>
        </mxCell>
        <mxCell id="mHuUaChPZsy_ELMwy_D_-18" value="N" style="resizable=0;html=1;whiteSpace=wrap;align=right;verticalAlign=bottom;" parent="mHuUaChPZsy_ELMwy_D_-17" connectable="0" vertex="1">
          <mxGeometry x="1" relative="1" as="geometry" />
        </mxCell>
        <mxCell id="mHuUaChPZsy_ELMwy_D_-20" value="" style="endArrow=none;html=1;rounded=0;exitX=0.5;exitY=1;exitDx=0;exitDy=0;" parent="1" source="mHuUaChPZsy_ELMwy_D_-5" edge="1">
          <mxGeometry relative="1" as="geometry">
            <mxPoint x="660" y="600" as="sourcePoint" />
            <mxPoint x="650" y="610" as="targetPoint" />
          </mxGeometry>
        </mxCell>
        <mxCell id="mHuUaChPZsy_ELMwy_D_-21" value="N" style="resizable=0;html=1;whiteSpace=wrap;align=right;verticalAlign=bottom;" parent="mHuUaChPZsy_ELMwy_D_-20" connectable="0" vertex="1">
          <mxGeometry x="1" relative="1" as="geometry" />
        </mxCell>
        <mxCell id="mHuUaChPZsy_ELMwy_D_-22" value="DeploymentTarget" style="swimlane;childLayout=stackLayout;horizontal=1;startSize=50;horizontalStack=0;rounded=1;fontSize=14;fontStyle=0;strokeWidth=2;resizeParent=0;resizeLast=1;shadow=0;dashed=0;align=center;arcSize=4;whiteSpace=wrap;html=1;" parent="1" vertex="1">
          <mxGeometry x="270" y="730" width="165" height="130" as="geometry" />
        </mxCell>
        <mxCell id="mHuUaChPZsy_ELMwy_D_-23" value="+Name&lt;br&gt;+ManifestsURL&amp;nbsp;&lt;br&gt;+Tags" style="align=left;strokeColor=none;fillColor=none;spacingLeft=4;fontSize=12;verticalAlign=top;resizable=0;rotatable=0;part=1;html=1;" parent="mHuUaChPZsy_ELMwy_D_-22" vertex="1">
          <mxGeometry y="50" width="165" height="80" as="geometry" />
        </mxCell>
        <mxCell id="mHuUaChPZsy_ELMwy_D_-24" value="" style="endArrow=none;html=1;rounded=0;exitX=0;exitY=0.5;exitDx=0;exitDy=0;" parent="1" source="mHuUaChPZsy_ELMwy_D_-11" target="mHuUaChPZsy_ELMwy_D_-22" edge="1">
          <mxGeometry relative="1" as="geometry">
            <mxPoint x="660" y="840" as="sourcePoint" />
            <mxPoint x="660" y="900" as="targetPoint" />
          </mxGeometry>
        </mxCell>
        <mxCell id="mHuUaChPZsy_ELMwy_D_-25" value="N" style="resizable=0;html=1;whiteSpace=wrap;align=right;verticalAlign=bottom;" parent="mHuUaChPZsy_ELMwy_D_-24" connectable="0" vertex="1">
          <mxGeometry x="1" relative="1" as="geometry">
            <mxPoint x="15" as="offset" />
          </mxGeometry>
        </mxCell>
        <mxCell id="mHuUaChPZsy_ELMwy_D_-26" value="Assignment" style="swimlane;childLayout=stackLayout;horizontal=1;startSize=50;horizontalStack=0;rounded=1;fontSize=14;fontStyle=0;strokeWidth=2;resizeParent=0;resizeLast=1;shadow=0;dashed=0;align=center;arcSize=4;whiteSpace=wrap;html=1;" parent="1" vertex="1">
          <mxGeometry x="570" y="930" width="160" height="90" as="geometry">
            <mxRectangle x="570" y="930" width="150" height="50" as="alternateBounds" />
          </mxGeometry>
        </mxCell>
        <mxCell id="mHuUaChPZsy_ELMwy_D_-27" value="+GitOps Commit ID&lt;br&gt;+Timestamp&amp;nbsp;" style="align=left;strokeColor=none;fillColor=none;spacingLeft=4;fontSize=12;verticalAlign=top;resizable=0;rotatable=0;part=1;html=1;" parent="mHuUaChPZsy_ELMwy_D_-26" vertex="1">
          <mxGeometry y="50" width="160" height="40" as="geometry" />
        </mxCell>
        <mxCell id="mHuUaChPZsy_ELMwy_D_-28" value="" style="endArrow=none;html=1;rounded=0;exitX=0.75;exitY=1;exitDx=0;exitDy=0;entryX=0;entryY=0.25;entryDx=0;entryDy=0;" parent="1" source="mHuUaChPZsy_ELMwy_D_-23" target="mHuUaChPZsy_ELMwy_D_-26" edge="1">
          <mxGeometry relative="1" as="geometry">
            <mxPoint x="580" y="805" as="sourcePoint" />
            <mxPoint x="445" y="805" as="targetPoint" />
            <Array as="points">
              <mxPoint x="394" y="950" />
            </Array>
          </mxGeometry>
        </mxCell>
        <mxCell id="mHuUaChPZsy_ELMwy_D_-29" value="N" style="resizable=0;html=1;whiteSpace=wrap;align=right;verticalAlign=bottom;" parent="mHuUaChPZsy_ELMwy_D_-28" connectable="0" vertex="1">
          <mxGeometry x="1" relative="1" as="geometry">
            <mxPoint x="-10" as="offset" />
          </mxGeometry>
        </mxCell>
        <mxCell id="mHuUaChPZsy_ELMwy_D_-30" value="" style="endArrow=none;html=1;rounded=0;exitX=0.5;exitY=1;exitDx=0;exitDy=0;entryX=1;entryY=0.25;entryDx=0;entryDy=0;" parent="1" source="mHuUaChPZsy_ELMwy_D_-15" target="mHuUaChPZsy_ELMwy_D_-26" edge="1">
          <mxGeometry relative="1" as="geometry">
            <mxPoint x="740" y="805" as="sourcePoint" />
            <mxPoint x="790" y="980" as="targetPoint" />
            <Array as="points">
              <mxPoint x="930" y="950" />
            </Array>
          </mxGeometry>
        </mxCell>
        <mxCell id="mHuUaChPZsy_ELMwy_D_-31" value="N" style="resizable=0;html=1;whiteSpace=wrap;align=right;verticalAlign=bottom;" parent="mHuUaChPZsy_ELMwy_D_-30" connectable="0" vertex="1">
          <mxGeometry x="1" relative="1" as="geometry">
            <mxPoint x="20" y="-2" as="offset" />
          </mxGeometry>
        </mxCell>
        <mxCell id="mHuUaChPZsy_ELMwy_D_-32" value="Deployment" style="swimlane;childLayout=stackLayout;horizontal=1;startSize=50;horizontalStack=0;rounded=1;fontSize=14;fontStyle=0;strokeWidth=2;resizeParent=0;resizeLast=1;shadow=0;dashed=0;align=center;arcSize=4;whiteSpace=wrap;html=1;" parent="1" vertex="1">
          <mxGeometry x="570" y="1170" width="160" height="90" as="geometry">
            <mxRectangle x="570" y="930" width="150" height="50" as="alternateBounds" />
          </mxGeometry>
        </mxCell>
        <mxCell id="mHuUaChPZsy_ELMwy_D_-33" value="+Timestamp&amp;nbsp;&lt;br&gt;+Status&amp;nbsp;" style="align=left;strokeColor=none;fillColor=none;spacingLeft=4;fontSize=12;verticalAlign=top;resizable=0;rotatable=0;part=1;html=1;" parent="mHuUaChPZsy_ELMwy_D_-32" vertex="1">
          <mxGeometry y="50" width="160" height="40" as="geometry" />
        </mxCell>
        <mxCell id="mHuUaChPZsy_ELMwy_D_-34" value="Host&lt;br&gt;(Cluster)" style="swimlane;childLayout=stackLayout;horizontal=1;startSize=50;horizontalStack=0;rounded=1;fontSize=14;fontStyle=0;strokeWidth=2;resizeParent=0;resizeLast=1;shadow=0;dashed=0;align=center;arcSize=4;whiteSpace=wrap;html=1;" parent="1" vertex="1">
          <mxGeometry x="-89.61" y="1157" width="160" height="90" as="geometry" />
        </mxCell>
        <mxCell id="mHuUaChPZsy_ELMwy_D_-35" value="+Name" style="align=left;strokeColor=none;fillColor=none;spacingLeft=4;fontSize=12;verticalAlign=top;resizable=0;rotatable=0;part=1;html=1;" parent="mHuUaChPZsy_ELMwy_D_-34" vertex="1">
          <mxGeometry y="50" width="160" height="40" as="geometry" />
        </mxCell>
        <mxCell id="mHuUaChPZsy_ELMwy_D_-36" value="" style="endArrow=none;html=1;rounded=0;entryX=0;entryY=0.25;entryDx=0;entryDy=0;" parent="1" target="mHuUaChPZsy_ELMwy_D_-32" edge="1">
          <mxGeometry relative="1" as="geometry">
            <mxPoint x="400" y="1192" as="sourcePoint" />
            <mxPoint x="610" y="1010" as="targetPoint" />
          </mxGeometry>
        </mxCell>
        <mxCell id="mHuUaChPZsy_ELMwy_D_-37" value="N" style="resizable=0;html=1;whiteSpace=wrap;align=right;verticalAlign=bottom;" parent="mHuUaChPZsy_ELMwy_D_-36" connectable="0" vertex="1">
          <mxGeometry x="1" relative="1" as="geometry" />
        </mxCell>
        <mxCell id="mHuUaChPZsy_ELMwy_D_-38" value="" style="endArrow=none;html=1;rounded=0;exitX=0.5;exitY=1;exitDx=0;exitDy=0;" parent="1" source="mHuUaChPZsy_ELMwy_D_-27" target="mHuUaChPZsy_ELMwy_D_-32" edge="1">
          <mxGeometry relative="1" as="geometry">
            <mxPoint x="440" y="970" as="sourcePoint" />
            <mxPoint x="600" y="970" as="targetPoint" />
          </mxGeometry>
        </mxCell>
        <mxCell id="mHuUaChPZsy_ELMwy_D_-39" value="N" style="resizable=0;html=1;whiteSpace=wrap;align=right;verticalAlign=bottom;" parent="mHuUaChPZsy_ELMwy_D_-38" connectable="0" vertex="1">
          <mxGeometry x="1" relative="1" as="geometry" />
        </mxCell>
        <mxCell id="mHuUaChPZsy_ELMwy_D_-48" value="" style="endArrow=none;html=1;rounded=0;exitX=1;exitY=0.375;exitDx=0;exitDy=0;exitPerimeter=0;entryX=-0.003;entryY=0.213;entryDx=0;entryDy=0;entryPerimeter=0;" parent="1" source="mHuUaChPZsy_ELMwy_D_-1" target="mHuUaChPZsy_ELMwy_D_-22" edge="1">
          <mxGeometry relative="1" as="geometry">
            <mxPoint x="390" y="950" as="sourcePoint" />
            <mxPoint x="550" y="950" as="targetPoint" />
          </mxGeometry>
        </mxCell>
        <mxCell id="mHuUaChPZsy_ELMwy_D_-49" value="N" style="resizable=0;html=1;whiteSpace=wrap;align=right;verticalAlign=bottom;" parent="mHuUaChPZsy_ELMwy_D_-48" connectable="0" vertex="1">
          <mxGeometry x="1" relative="1" as="geometry" />
        </mxCell>
        <mxCell id="2QzJ4g1VmdHlLAmHw316-1" value="Reconciler&lt;br&gt;(Flux Kustomization, ArgoCD Application, etc)" style="swimlane;childLayout=stackLayout;horizontal=1;startSize=50;horizontalStack=0;rounded=1;fontSize=14;fontStyle=0;strokeWidth=2;resizeParent=0;resizeLast=1;shadow=0;dashed=0;align=center;arcSize=4;whiteSpace=wrap;html=1;" vertex="1" parent="1">
          <mxGeometry x="216" y="1150" width="190" height="120" as="geometry" />
        </mxCell>
        <mxCell id="2QzJ4g1VmdHlLAmHw316-2" value="+Name&lt;br&gt;+ManifestsURL" style="align=left;strokeColor=none;fillColor=none;spacingLeft=4;fontSize=12;verticalAlign=top;resizable=0;rotatable=0;part=1;html=1;" vertex="1" parent="2QzJ4g1VmdHlLAmHw316-1">
          <mxGeometry y="50" width="190" height="70" as="geometry" />
        </mxCell>
        <mxCell id="2QzJ4g1VmdHlLAmHw316-3" value="" style="endArrow=none;html=1;rounded=0;exitX=0.25;exitY=1;exitDx=0;exitDy=0;" edge="1" parent="1" source="mHuUaChPZsy_ELMwy_D_-23" target="2QzJ4g1VmdHlLAmHw316-1">
          <mxGeometry relative="1" as="geometry">
            <mxPoint x="410" y="1202" as="sourcePoint" />
            <mxPoint x="580" y="1203" as="targetPoint" />
          </mxGeometry>
        </mxCell>
        <mxCell id="2QzJ4g1VmdHlLAmHw316-4" value="N" style="resizable=0;html=1;whiteSpace=wrap;align=right;verticalAlign=bottom;" connectable="0" vertex="1" parent="2QzJ4g1VmdHlLAmHw316-3">
          <mxGeometry x="1" relative="1" as="geometry" />
        </mxCell>
        <mxCell id="2QzJ4g1VmdHlLAmHw316-7" value="" style="endArrow=none;html=1;rounded=0;entryX=0;entryY=0.25;entryDx=0;entryDy=0;exitX=1;exitY=0.25;exitDx=0;exitDy=0;" edge="1" parent="1" source="mHuUaChPZsy_ELMwy_D_-34" target="2QzJ4g1VmdHlLAmHw316-1">
          <mxGeometry relative="1" as="geometry">
            <mxPoint x="410" y="1202" as="sourcePoint" />
            <mxPoint x="580" y="1203" as="targetPoint" />
          </mxGeometry>
        </mxCell>
        <mxCell id="2QzJ4g1VmdHlLAmHw316-8" value="N" style="resizable=0;html=1;whiteSpace=wrap;align=right;verticalAlign=bottom;" connectable="0" vertex="1" parent="2QzJ4g1VmdHlLAmHw316-7">
          <mxGeometry x="1" relative="1" as="geometry" />
        </mxCell>
      </root>
    </mxGraphModel>
  </diagram>
</mxfile>
